<?xml version="1.0" encoding="UTF-8"?>
<svg xmlns="http://www.w3.org/2000/svg" width="256" height="256" viewBox="0 0 256 256">
<title>PromptZ — Create</title>
<desc>PromptZ reference redraw. Editable vector paths with a transparent canvas. Purple #7638F5; charcoal #27232E. No embedded images or font dependencies.</desc>
<g id="Create" transform="translate(-1191 -75) scale(.95)"><g id="Character"><path id="Head" d="M 1309 253 C 1312 226 1328 192 1354 180 C 1382 168 1405 181 1409 244" fill="none" stroke="#27232E" stroke-width="4.8" stroke-linecap="round" stroke-linejoin="round"/><path id="Back" d="M 1318 258 C 1301 276 1286 307 1308 321" fill="none" stroke="#27232E" stroke-width="4.8" stroke-linecap="round" stroke-linejoin="round"/><path id="Lower-arm" d="M 1339 292 C 1369 291 1379 317 1348 330" fill="none" stroke="#27232E" stroke-width="4.8" stroke-linecap="round" stroke-linejoin="round"/><path id="Raised-arm" d="M 1410 244 C 1424 231 1429 208 1440 209 C 1457 209 1459 235 1446 260 C 1439 274 1427 287 1417 294" fill="none" stroke="#27232E" stroke-width="4.8" stroke-linecap="round" stroke-linejoin="round"/><g transform="rotate(-3 1372 215)"><path id="Eye-left" d="M 1372 205.6 C 1374.043453575 205.6 1375.7 209.80852335 1375.7 215 C 1375.7 220.19147665 1374.043453575 224.4 1372 224.4 C 1369.956546425 224.4 1368.3 220.19147665 1368.3 215 C 1368.3 209.80852335 1369.956546425 205.6 1372 205.6 Z" fill="#27232E"/></g><g transform="rotate(-3 1388 211.5)"><path id="Eye-right" d="M 1388 202.1 C 1390.043453575 202.1 1391.7 206.30852335 1391.7 211.5 C 1391.7 216.69147665 1390.043453575 220.9 1388 220.9 C 1385.956546425 220.9 1384.3 216.69147665 1384.3 211.5 C 1384.3 206.30852335 1385.956546425 202.1 1388 202.1 Z" fill="#27232E"/></g></g><g id="Light-bulb"><path id="Bulb-glass" d="M 1424 175 C 1423 163 1409 159 1409 146 C 1409 132 1419 123 1433 123 C 1448 123 1459 133 1458 147 C 1457 160 1446 164 1445 175 Z" fill="#E9DDFB"/><path id="Filament" d="M 1432 174 C 1432 163 1423 148 1427 148 C 1431 148 1430 156 1436 153 C 1442 150 1444 147 1442 154 L 1438 174" fill="none" stroke="#FFFFFF" stroke-width="2.6" stroke-linecap="round" stroke-linejoin="round"/><path id="Bulb-base-top" d="M 1426 180 L 1445 178" fill="none" stroke="#27232E" stroke-width="4.5" stroke-linecap="round" stroke-linejoin="round"/><path id="Bulb-base-bottom" d="M 1428 186 L 1443 184.5" fill="none" stroke="#27232E" stroke-width="4.5" stroke-linecap="round" stroke-linejoin="round"/><path id="Bulb-tip" d="M 1431 192 L 1440 191" fill="none" stroke="#27232E" stroke-width="4" stroke-linecap="round" stroke-linejoin="round"/></g><g id="Idea-rays"><path id="Ray-left" d="M 1408 115 L 1401 104" fill="none" stroke="#7638F5" stroke-width="5.5" stroke-linecap="round" stroke-linejoin="round"/><path id="Ray-top" d="M 1442 111 L 1445 98" fill="none" stroke="#7638F5" stroke-width="5.5" stroke-linecap="round" stroke-linejoin="round"/><path id="Ray-right" d="M 1470 127 L 1480 121" fill="none" stroke="#7638F5" stroke-width="5.5" stroke-linecap="round" stroke-linejoin="round"/></g></g>
</svg>
